#!OML:ASF H:\Terrain\Patient Classification 1\Walking\steve\steve.ASF
:FULLY-SPECIFIED
:DEGREES
185
root 7.72185 16.314 0.492568 3.9413 -4.72413 3.61514
lowerback 0.0087809 2.0947 -3.96597
upperback -2.1162 2.72508 -1.06063
thorax -2.31384 1.42497 1.07037
lowerneck -11.0652 -0.72236 -1.98457
upperneck 17.9891 -0.597421 -0.080663
head 7.3515 -0.426382 0.246424
rclavicle 1.67198e-015 6.95746e-016
rhumerus -43.7531 -9.39381 -83.6762
rradius 30.2508
rwrist -14.4452
rhand -20.0806 -39.1534
rfingers 7.12502
rthumb 6.26197 -69.0408
lclavicle 1.67198e-015 6.95746e-016
lhumerus -29.9068 3.88947 86.0866
lradius 23.7395
lwrist 6.46193
lhand -23.1033 -11.5648
lfingers 7.12502
lthumb 3.34335 18.3887
rfemur -32.5102 0.849296 18.8058
rtibia 67.1871
rfoot -10.7531 0.974124
rtoes -8.80371
lfemur -12.1699 0.285084 -28.5362
ltibia 28.1368
lfoot -16.8501 -4.2089
ltoes 6.51398
186
root 7.71467 16.3105 0.688192 4.29648 -4.38626 3.18868
lowerback 0.132415 1.99866 -3.76583
upperback -2.39969 2.59066 -0.823382
thorax -2.67095 1.36554 1.19375
lowerneck -10.8752 -0.729023 -2.03779
upperneck 17.9782 -0.618575 0.00920892
head 7.31474 -0.431804 0.283108
rclavicle -1.26333e-014 1.36664e-014
rhumerus -45.0685 -10.5489 -82.7403
rradius 28.7165
rwrist -12.9684
rhand -20 -39.5879
rfingers 7.12502
rthumb 6.33985 -69.473
lclavicle -1.26333e-014 1.36664e-014
lhumerus -29.0458 2.23234 86.8616
lradius 25.5747
lwrist 8.50466
lhand -22.6753 -11.4283
lfingers 7.12502
lthumb 3.75665 18.5183
rfemur -33.9087 0.900317 19.5376
rtibia 65.2571
rfoot -11.9338 0.000627589
rtoes -11.0314
lfemur -11.7041 0.794626 -28.0743
ltibia 28.0905
lfoot -17.3606 -5.02075
ltoes 6.99407
187
root 7.70674 16.3044 0.886666 4.46066 -4.06569 3.06162
lowerback 0.362445 1.95644 -3.86774
upperback -2.59362 2.52031 -0.665008
thorax -3.00971 1.3424 1.40162
lowerneck -10.8732 -0.7771 -2.09965
upperneck 18.2027 -0.687122 0.0875719
head 7.38893 -0.462933 0.312296
rclavicle 3.81535e-015 -1.78906e-015
rhumerus -46.4498 -11.9638 -81.3915
rradius 27.0657
rwrist -11.183
rhand -19.8535 -40.2014
rfingers 7.12502
rthumb 6.48122 -70.0822
lclavicle 3.81535e-015 -1.78906e-015
lhumerus -28.0584 0.320437 87.7011
lradius 27.1913
lwrist 10.8939
lhand -22.7228 -11.1901
lfingers 7.12502
lthumb 3.71076 18.7574
rfemur -35.0945 0.992354 19.9433
rtibia 63.1514
rfoot -13.256 -0.457753
rtoes -14.2399
lfemur -11.1435 1.19566 -27.9403
ltibia 28.1416
lfoot -17.9311 -5.65093
ltoes 6.89625
188
root 7.69873 16.2939 1.09179 4.50951 -3.59455 3.04501
lowerback 0.470972 1.88953 -3.94407
upperback -2.62149 2.42543 -0.596137
thorax -3.10118 1.29972 1.51365
lowerneck -10.7526 -0.918048 -2.11213
upperneck 18.1478 -0.878397 0.0703455
head 7.35181 -0.556477 0.291062
rclavicle -8.38856e-015 2.98177e-016
rhumerus -47.8134 -13.3706 -80.0171
rradius 25.6968
rwrist -9.5566
rhand -19.3613 -41.1125
rfingers 7.12502
rthumb 6.95637 -70.9782
lclavicle -8.38856e-015 2.98177e-016
lhumerus -26.928 -2.2163 88.5503
lradius 28.5774
lwrist 13.2063
lhand -23.379 -11.6818
lfingers 7.12502
lthumb 3.07713 18.2757
rfemur -35.9572 0.931071 20.2025
rtibia 60.8343
rfoot -14.2814 -0.965186
rtoes -16.8762
lfemur -10.3387 1.59576 -27.9239
ltibia 27.9897
lfoot -18.2286 -6.20717
ltoes 5.53095
189
root 7.69073 16.2871 1.29995 4.54042 -3.10126 2.96891
lowerback 0.546568 1.74615 -3.96758
upperback -2.56751 2.23394 -0.498129
thorax -3.082 1.20515 1.63332
lowerneck -10.6119 -0.982888 -2.12661
upperneck 17.8076 -0.976343 0.105248
head 7.21727 -0.599333 0.296605
rclavicle -1.35837e-014 -2.5842e-015
rhumerus -49.0357 -14.9207 -78.4735
rradius 24.2531
rwrist -7.61533
rhand -18.7812 -40.676
rfingers 7.12502
rthumb 7.51634 -70.5224
lclavicle -1.35837e-014 -2.5842e-015
lhumerus -25.6154 -4.20555 88.9901
lradius 29.932
lwrist 15.0042
lhand -23.9084 -12.3574
lfingers 7.12502
lthumb 2.56584 17.6069
rfemur -36.6042 0.858649 20.4352
rtibia 58.2544
rfoot -15.2334 -1.84354
rtoes -17.849
lfemur -9.27998 1.72968 -27.8886
ltibia 27.5238
lfoot -18.3753 -6.02345
ltoes 3.09224
190
root 7.68478 16.2608 1.51576 4.49996 -2.73906 3.15496
lowerback 0.662788 1.6622 -4.24435
upperback -2.5367 2.11172 -0.464415
thorax -3.1211 1.15165 1.82395
lowerneck -10.5033 -1.0013 -2.21048
upperneck 17.5362 -1.02187 0.275717
head 7.1117 -0.610082 0.362366
rclavicle -1.86865e-014 2.28602e-015
rhumerus -50.5206 -15.8966 -77.0964
rradius 23.1902
rwrist -5.83395
rhand -17.9976 -39.9636
rfingers 7.12502
rthumb 8.27262 -69.7816
lclavicle -1.86865e-014 2.28602e-015
lhumerus -24.5202 -5.33149 89.2663
lradius 31.5012
lwrist 16.3036
lhand -24.5946 -12.6551
lfingers 7.12502
lthumb 1.9031 17.3161
rfemur -37.1141 0.819836 20.2775
rtibia 55.4858
rfoot -16.227 -1.73747
rtoes -15.077
lfemur -7.93291 1.90507 -28.1558
ltibia 26.8918
lfoot -18.7405 -5.88621
ltoes 1.53895
191
root 7.68207 16.249 1.74221 4.4849 -2.46842 3.2728
lowerback 0.598101 1.65863 -4.34191
upperback -2.4618 2.11033 -0.461187
thorax -3.01105 1.15027 1.88534
lowerneck -10.5558 -1.06331 -2.22782
upperneck 17.399 -1.111 0.321515
head 7.07801 -0.649037 0.371775
rclavicle -1.68458e-014 -1.39149e-015
rhumerus -51.9353 -16.9115 -75.6334
rradius 22.1553
rwrist -3.98875
rhand -17.3127 -39.4675
rfingers 7.12502
rthumb 8.93364 -69.2584
lclavicle -1.68458e-014 -1.39149e-015
lhumerus -23.4731 -6.6916 89.572
lradius 33.0988
lwrist 17.6811
lhand -24.8472 -12.3923
lfingers 7.12502
lthumb 1.65918 17.581
rfemur -37.5361 0.76946 20.1426
rtibia 52.596
rfoot -17.119 -1.13241
rtoes -10.6237
lfemur -6.45227 2.43462 -28.2534
ltibia 25.8592
lfoot -18.9239 -6.25324
ltoes 0.452361
192
root 7.67476 16.2677 1.9679 4.61194 -1.88668 2.89416
lowerback 0.428275 1.52292 -4.01565
upperback -2.40722 1.95051 -0.274581
thorax -2.84241 1.06175 1.90717
lowerneck -10.6347 -1.11085 -2.09486
upperneck 17.2437 -1.14884 0.0539982
head 7.03996 -0.681136 0.259588
rclavicle -4.44334e-015 1.98785e-015
rhumerus -53.2614 -18.7283 -73.3038
rradius 20.7341
rwrist -1.30376
rhand -16.8134 -38.6304
rfingers 7.12502
rthumb 9.41543 -68.4001
lclavicle -4.44334e-015 1.98785e-015
lhumerus -22.2314 -8.08698 89.668
lradius 34.5243
lwrist 19.0576
lhand -24.5238 -12.4007
lfingers 7.12502
lthumb 1.97148 17.57
rfemur -37.8565 0.426638 20.6142
rtibia 49.5348
rfoot -17.9461 -1.21046
rtoes -10.4189
lfemur -5.07587 2.26203 -27.7059
ltibia 24.544
lfoot -18.5317 -6.83026
ltoes 2.52687
193
root 7.66984 16.2607 2.18846 4.34262 -1.37637 3.60409
lowerback 0.800648 1.39258 -4.81485
upperback -2.37991 1.73902 -0.34314
thorax -3.03623 0.977049 2.28118
lowerneck -10.5339 -1.16234 -2.13734
upperneck 17.1141 -1.20793 0.0176641
head 6.98115 -0.714735 0.250283
rclavicle -4.18015e-014 -1.63003e-014
rhumerus -55.1529 -20.4289 -70.5924
rradius 19.6798
rwrist 1.58578
rhand -16.5164 -37.8076
rfingers 7.12502
rthumb 9.70194 -67.5642
lclavicle -4.18015e-014 -1.63003e-014
lhumerus -21.0759 -9.2233 89.7013
lradius 35.7438
lwrist 20.2216
lhand -24.8933 -13.1101
lfingers 7.12502
lthumb 1.61465 16.8635
rfemur -37.8841 -0.0893513 19.9311
rtibia 46.4987
rfoot -17.8923 -1.41917
rtoes -12.2096
lfemur -3.10048 1.47802 -28.4233
ltibia 23.0779
lfoot -18.1664 -7.21558
ltoes 6.75884
